HIERARCHY
ROOT Hips
{
    OFFSET   0.000000   0.000000   0.000000
    CHANNELS 6 Xposition Yposition Zposition Zrotation Xrotation Yrotation
    JOINT Chest
    {
        OFFSET   0.000000   8.007230   0.000000
        CHANNELS 3 Zrotation Xrotation Yrotation
        JOINT Chest2
        {
            OFFSET   0.000000  22.077100   0.000000
            CHANNELS 3 Zrotation Xrotation Yrotation
            JOINT Neck
            {
                OFFSET   0.000000  23.255100   0.000000
                CHANNELS 3 Zrotation Xrotation Yrotation
                JOINT Head
                {
                    OFFSET   0.000000  14.370100   1.956600
                    CHANNELS 3 Zrotation Xrotation Yrotation
                    End Site
                    {
                        OFFSET   0.000000  19.566000   0.000000
                    }
                }
            }
            JOINT LeftCollar
            {
                OFFSET   3.911900  19.017000  -0.467063
                CHANNELS 3 Zrotation Xrotation Yrotation
                JOINT LeftShoulder
                {
                    OFFSET  10.383700   0.000000   0.000000
                    CHANNELS 3 Zrotation Xrotation Yrotation
                    JOINT LeftElbow
                    {
                        OFFSET  26.662100   0.001193   0.000980
                        CHANNELS 3 Zrotation Xrotation Yrotation
                        JOINT LeftWrist
                        {
                            OFFSET  28.869000  -0.000059  -0.000082
                            CHANNELS 3 Zrotation Xrotation Yrotation
                            JOINT LeftFinger0
                            {
                                OFFSET   2.044650  -2.323450   3.252850
                                CHANNELS 3 Zrotation Xrotation Yrotation
                                JOINT LeftFinger01
                                {
                                    OFFSET   3.088130   0.000000   0.000000
                                    CHANNELS 3 Zrotation Xrotation Yrotation
                                    JOINT LeftFinger02
                                    {
                                        OFFSET   2.639460   0.000000   0.000000
                                        CHANNELS 3 Zrotation Xrotation Yrotation
                                        End Site
                                        {
                                            OFFSET   2.582190   0.000000   0.000000
                                        }
                                    }
                                }
                            }
                            JOINT LeftFinger1
                            {
                                OFFSET   8.364480   0.000000   3.252850
                                CHANNELS 3 Zrotation Xrotation Yrotation
                                JOINT LeftFinger11
                                {
                                    OFFSET   4.646930   0.000000   0.000000
                                    CHANNELS 3 Zrotation Xrotation Yrotation
                                    JOINT LeftFinger12
                                    {
                                        OFFSET   2.323470   0.000000   0.000000
                                        CHANNELS 3 Zrotation Xrotation Yrotation
                                        End Site
                                        {
                                            OFFSET   2.273050   0.000000   0.000000
                                        }
                                    }
                                }
                            }
                            JOINT LeftFinger2
                            {
                                OFFSET   8.364490   0.000016   1.078090
                                CHANNELS 3 Zrotation Xrotation Yrotation
                                JOINT LeftFinger21
                                {
                                    OFFSET   5.111610   0.000000   0.000000
                                    CHANNELS 3 Zrotation Xrotation Yrotation
                                    JOINT LeftFinger22
                                    {
                                        OFFSET   2.788150   0.000016   0.000000
                                        CHANNELS 3 Zrotation Xrotation Yrotation
                                        End Site
                                        {
                                            OFFSET   2.727660   0.000000   0.000000
                                        }
                                    }
                                }
                            }
                            JOINT LeftFinger3
                            {
                                OFFSET   7.899780   0.000015  -1.078090
                                CHANNELS 3 Zrotation Xrotation Yrotation
                                JOINT LeftFinger31
                                {
                                    OFFSET   4.646930   0.000000   0.000000
                                    CHANNELS 3 Zrotation Xrotation Yrotation
                                    JOINT LeftFinger32
                                    {
                                        OFFSET   2.323470   0.000000   0.000000
                                        CHANNELS 3 Zrotation Xrotation Yrotation
                                        End Site
                                        {
                                            OFFSET   2.273050   0.000000   0.000000
                                        }
                                    }
                                }
                            }
                            JOINT LeftFinger4
                            {
                                OFFSET   7.435090   0.000000  -3.252850
                                CHANNELS 3 Zrotation Xrotation Yrotation
                                JOINT LeftFinger41
                                {
                                    OFFSET   3.717550   0.000000   0.000000
                                    CHANNELS 3 Zrotation Xrotation Yrotation
                                    JOINT LeftFinger42
                                    {
                                        OFFSET   1.858770   0.000000   0.000000
                                        CHANNELS 3 Zrotation Xrotation Yrotation
                                        End Site
                                        {
                                            OFFSET   1.818440   0.000000   0.000000
                                        }
                                    }
                                }
                            }
                        }
                    }
                }
            }
            JOINT RightCollar
            {
                OFFSET  -3.911910  19.017000  -0.467062
                CHANNELS 3 Zrotation Xrotation Yrotation
                JOINT RightShoulder
                {
                    OFFSET -10.383700   0.000014   0.000000
                    CHANNELS 3 Zrotation Xrotation Yrotation
                    JOINT RightElbow
                    {
                        OFFSET -26.662100   0.001225   0.001091
                        CHANNELS 3 Zrotation Xrotation Yrotation
                        JOINT RightWrist
                        {
                            OFFSET -28.869000  -0.000020  -0.000085
                            CHANNELS 3 Zrotation Xrotation Yrotation
                            JOINT RightFinger0
                            {
                                OFFSET  -2.044650  -2.323490   3.252850
                                CHANNELS 3 Zrotation Xrotation Yrotation
                                JOINT RightFinger01
                                {
                                    OFFSET  -3.088130   0.000000   0.000000
                                    CHANNELS 3 Zrotation Xrotation Yrotation
                                    JOINT RightFinger02
                                    {
                                        OFFSET  -2.639460   0.000000   0.000000
                                        CHANNELS 3 Zrotation Xrotation Yrotation
                                        End Site
                                        {
                                            OFFSET  -2.582190   0.000000   0.000000
                                        }
                                    }
                                }
                            }
                            JOINT RightFinger1
                            {
                                OFFSET  -8.364480   0.000000   3.252850
                                CHANNELS 3 Zrotation Xrotation Yrotation
                                JOINT RightFinger11
                                {
                                    OFFSET  -4.646930   0.000000   0.000000
                                    CHANNELS 3 Zrotation Xrotation Yrotation
                                    JOINT RightFinger12
                                    {
                                        OFFSET  -2.323470   0.000000   0.000000
                                        CHANNELS 3 Zrotation Xrotation Yrotation
                                        End Site
                                        {
                                            OFFSET  -2.273050   0.000000   0.000000
                                        }
                                    }
                                }
                            }
                            JOINT RightFinger2
                            {
                                OFFSET  -8.364480   0.000000   1.078090
                                CHANNELS 3 Zrotation Xrotation Yrotation
                                JOINT RightFinger21
                                {
                                    OFFSET  -5.111620   0.000000   0.000000
                                    CHANNELS 3 Zrotation Xrotation Yrotation
                                    JOINT RightFinger22
                                    {
                                        OFFSET  -2.788160   0.000000   0.000000
                                        CHANNELS 3 Zrotation Xrotation Yrotation
                                        End Site
                                        {
                                            OFFSET  -2.727660   0.000000   0.000000
                                        }
                                    }
                                }
                            }
                            JOINT RightFinger3
                            {
                                OFFSET  -7.899780   0.000000  -1.078090
                                CHANNELS 3 Zrotation Xrotation Yrotation
                                JOINT RightFinger31
                                {
                                    OFFSET  -4.646930   0.000000   0.000000
                                    CHANNELS 3 Zrotation Xrotation Yrotation
                                    JOINT RightFinger32
                                    {
                                        OFFSET  -2.323470   0.000000   0.000000
                                        CHANNELS 3 Zrotation Xrotation Yrotation
                                        End Site
                                        {
                                            OFFSET  -2.273050   0.000000   0.000000
                                        }
                                    }
                                }
                            }
                            JOINT RightFinger4
                            {
                                OFFSET  -7.435090   0.000000  -3.252850
                                CHANNELS 3 Zrotation Xrotation Yrotation
                                JOINT RightFinger41
                                {
                                    OFFSET  -3.717550   0.000000   0.000000
                                    CHANNELS 3 Zrotation Xrotation Yrotation
                                    JOINT RightFinger42
                                    {
                                        OFFSET  -1.858760   0.000000   0.000000
                                        CHANNELS 3 Zrotation Xrotation Yrotation
                                        End Site
                                        {
                                            OFFSET  -1.818440   0.000000   0.000000
                                        }
                                    }
                                }
                            }
                        }
                    }
                }
            }
        }
    }
    JOINT LeftHip
    {
        OFFSET   9.783030   0.000000   0.000000
        CHANNELS 3 Zrotation Xrotation Yrotation
        JOINT LeftKnee
        {
            OFFSET   0.000063 -41.789100   0.000608
            CHANNELS 3 Zrotation Xrotation Yrotation
            JOINT LeftAnkle
            {
                OFFSET   0.000048 -41.133200  -0.000184
                CHANNELS 3 Zrotation Xrotation Yrotation
                JOINT LeftToe
                {
                    OFFSET   0.000000  -6.358960  14.674500
                    CHANNELS 3 Zrotation Xrotation Yrotation
                    End Site
                    {
                        OFFSET   0.000000   0.000000   3.913200
                    }
                }
            }
        }
    }
    JOINT RightHip
    {
        OFFSET  -9.783030   0.000000   0.000000
        CHANNELS 3 Zrotation Xrotation Yrotation
        JOINT RightKnee
        {
            OFFSET   0.000071 -41.789100   0.001239
            CHANNELS 3 Zrotation Xrotation Yrotation
            JOINT RightAnkle
            {
                OFFSET   0.000037 -41.133200  -0.000166
                CHANNELS 3 Zrotation Xrotation Yrotation
                JOINT RightToe
                {
                    OFFSET   0.000000  -6.358960  14.674500
                    CHANNELS 3 Zrotation Xrotation Yrotation
                    End Site
                    {
                        OFFSET   0.000000   0.000000   3.913200
                    }
                }
            }
        }
    }
}
MOTION
Frames: 4
Frame Time:   0.016667
  0.167907  89.591200   0.584687  -0.699768 -13.919300  -3.081510  -0.971773   7.598870  -1.031090  -1.828530  15.213200  -1.956920  -6.889630   3.091030   0.373294 -11.405600   5.996920  16.388300  -1.744700  -1.030380   4.693450 -22.769400  10.048200 -64.908200  10.321500   6.961410 -65.362200 -29.317100 -45.167400 -22.170800  42.133500  42.661700 -85.891700 -28.894300   0.007807   0.006527  -9.447190   0.000957   0.005491 -29.584800  -1.749900   3.078940 -24.244200  -0.001631   0.000831 -16.971000  -0.004572  -0.005113 -39.450100  -3.574520   4.329880 -54.305500  -0.000062  -0.000098 -37.153100   0.003594  -0.006964 -27.700000  -2.979880   5.654910 -31.056500  -0.002697  -0.002485 -20.683600  -0.003601  -0.002026 -30.554400  -4.334130   7.295410 -46.246300   0.003662   0.004672 -30.800000   0.002124  -0.001528  -0.613706  -1.790520   7.213740  25.216300  -5.546880  56.159200 -10.430100  -1.033200  88.040900  65.863200 -26.879300  11.370500 -49.171300  35.142200  68.680900  18.286400   0.001950  -0.001409   4.143220   0.002987  -0.003830  21.410500  -1.740840  -4.440280  17.572400  -0.001151   0.005897  12.300700  -0.001291   0.004535  24.564200  -2.424670  -5.296980  24.675900  -0.003382   0.002294  16.434200   0.000084   0.001561  24.400500  -4.377550  -9.559990  24.766300  -0.006054   0.005339  16.494400  -0.000396   0.006562  32.592200  -6.920500 -10.680900  49.859800  -0.002157   0.006331  33.206600  -0.000470   0.000306   2.046050  14.831000   0.807324   0.074749   1.816900  11.358600  -3.680010  -3.388560  -0.604732   0.000000   0.000000   0.000000  -0.378099  16.221400  -4.656740  -0.364085   1.850900 -16.378000   1.159910  -3.435870  -0.254607  -0.000000   0.000000   0.000000
  0.161733  89.584800   0.587992  -0.664690 -13.919400  -2.910420  -0.977375   7.641740  -0.973814  -1.847990  15.298200  -1.839600  -6.782170   2.971690   0.353261 -11.212800   5.773460  16.175100  -1.788170  -1.085980   4.740450 -22.687100  10.045400 -65.070200  10.351900   7.069080 -65.446100 -29.287600 -45.146900 -22.137900  42.075800  42.571400 -85.805600 -28.870900   0.007949   0.006521  -9.435440   0.000950   0.005493 -29.595000  -1.751940   3.081730 -24.252700  -0.001623   0.000818 -16.977000  -0.004572  -0.005052 -39.503200  -3.574800   4.322300 -54.308400  -0.000073  -0.000110 -37.169400   0.003568  -0.006931 -27.709000  -2.979180   5.651330 -31.110600  -0.002689  -0.002431 -20.719600  -0.003606  -0.002008 -30.578300  -4.342870   7.303110 -46.283400   0.003666   0.004770 -30.824700   0.002087  -0.001495  -0.482297  -1.583660   7.324140  25.412200  -4.921960  55.743200 -10.647600  -0.551038  88.140200  65.471900 -26.611400  10.953900 -49.863100  35.224400  68.818500  17.471500   0.001929  -0.001417   3.735770   0.003105  -0.003832  20.991200  -1.618720  -4.215840  17.222800  -0.001194   0.005774  12.056000  -0.001363   0.004360  24.207900  -2.302430  -5.109670  24.309800  -0.003323   0.002261  16.190400   0.000107   0.001368  24.062400  -4.229460  -9.380770  24.412300  -0.005913   0.005513  16.258600  -0.000433   0.006285  32.200100  -6.730770 -10.550100  49.233800  -0.002221   0.006334  32.789700  -0.000575   0.000369   2.053670  14.824800   0.787723   0.074082   1.802310  11.250000  -3.677990  -3.378170  -0.645086  -0.000000   0.000000   0.000000  -0.373505  16.254100  -4.667980  -0.352899   1.836900 -16.455600   1.158350  -3.454280  -0.338858  -0.000000   0.000000   0.000000
  0.159217  89.578000   0.590822  -0.626775 -13.907500  -2.716330  -0.975860   7.665070  -0.951365  -1.847020  15.344500  -1.793950  -6.706870   2.849710   0.334963 -11.090600   5.541910  16.029800  -1.828300  -1.114560   4.826300 -22.595600  10.044200 -65.200200  10.373400   7.169390 -65.530400 -29.268300 -45.125900 -22.119800  42.021500  42.505200 -85.724500 -28.847400   0.008089   0.006514  -9.423690   0.000944   0.005495 -29.602900  -1.754530   3.084840 -24.259200  -0.001619   0.000798 -16.981500  -0.004573  -0.004992 -39.578400  -3.575090   4.311540 -54.312600  -0.000084  -0.000130 -37.192500   0.003539  -0.006896 -27.719100  -2.978470   5.647800 -31.167700  -0.002680  -0.002376 -20.757700  -0.003609  -0.001989 -30.600900  -4.355590   7.317700 -46.319300   0.003670   0.004869 -30.848700   0.002051  -0.001464  -0.361488  -1.394890   7.426030  25.850400  -4.431490  55.363400 -10.884500  -0.198061  88.346400  65.010400 -26.502700  10.564500 -50.372800  35.303800  68.947500  16.886500   0.001907  -0.001426   3.443250   0.003222  -0.003833  20.768900  -1.544720  -4.067930  17.037600  -0.001236   0.005665  11.926300  -0.001433   0.004201  24.039600  -2.232450  -4.992130  24.136800  -0.003251   0.002241  16.075100   0.000124   0.001179  23.899600  -4.144180  -9.263700  24.235500  -0.005796   0.005707  16.140800  -0.000471   0.006019  31.943000  -6.640940 -10.509600  48.831700  -0.002286   0.006348  32.521900  -0.000681   0.000429   2.059650  14.804000   0.775244   0.074076   1.770050  11.123400  -3.675770  -3.352160  -0.692444  -0.000000   0.000000  -0.000000  -0.364110  16.275400  -4.723300  -0.342983   1.823280 -16.494500   1.159290  -3.473460  -0.431078  -0.000000   0.000000   0.000000
  0.168974  89.569300   0.594006  -0.581381 -13.872500  -2.505730  -0.968076   7.666730  -0.951251  -1.830480  15.347600  -1.794240  -6.660530   2.736640   0.319520 -11.021600   5.325330  15.947300  -1.860240  -1.088470   4.916030 -22.544900  10.033200 -65.276300  10.424100   7.316550 -65.621700 -29.260700 -45.221100 -22.161300  41.996500  42.501700 -85.688700 -28.865600   0.008230   0.006499  -9.432810   0.000941   0.005495 -29.607500  -1.777170   3.123550 -24.264500  -0.001615   0.000789 -16.985200  -0.004579  -0.004944 -39.682300  -3.575390   4.296670 -54.318700  -0.000081  -0.000154 -37.224300   0.003504  -0.006860 -27.726500  -3.008390   5.702180 -31.228900  -0.002682  -0.002319 -20.798500  -0.003589  -0.001954 -30.625300  -4.387050   7.367940 -46.362200   0.003675   0.004968 -30.877200   0.002011  -0.001436  -0.252591  -1.207930   7.506860  26.308800  -4.012140  55.042000 -11.145900  -0.014482  88.581300  64.574800 -26.353500  10.208100 -50.593500  35.429400  69.172500  16.697800   0.001882  -0.001435   3.348930   0.003341  -0.003835  20.712600  -1.503120  -3.974110  16.990100  -0.001285   0.005560  11.893100  -0.001489   0.004046  24.007800  -2.180140  -4.888150  24.102900  -0.003161   0.002224  16.052500   0.000140   0.001004  23.852200  -4.096730  -9.191850  24.183200  -0.005703   0.005927  16.106000  -0.000510   0.005765  31.808000  -6.588520 -10.483200  48.619800  -0.002341   0.006375  32.380700  -0.000792   0.000487   2.056050  14.762700   0.779804   0.082778   1.730020  10.981700  -3.672510  -3.312830  -0.753584   0.000000   0.000000   0.000000  -0.347070  16.260300  -4.889910  -0.343876   1.824560 -16.469800   1.160670  -3.489390  -0.522468  -0.000000   0.000000   0.000000
